<svg width="83" height="84" viewBox="0 0 83 84" fill="none" xmlns="http://www.w3.org/2000/svg">
<path d="M76.6925 44.1061L76.0936 48.3966L75.0715 48.2539L75.6704 43.9635L76.6925 44.1061ZM72.2904 43.6129L72.4563 42.4244L80.7756 43.5856L79.9562 49.4567L78.9222 49.3123L79.5758 44.6297L72.2904 43.6129Z" fill="#D2F65A"/>
<path d="M69.4107 54.5474C69.6925 53.9728 70.052 53.4852 70.489 53.0847C70.9224 52.6914 71.3996 52.3998 71.9205 52.2097C72.4486 52.0232 72.9954 51.9439 73.5609 51.9718C74.1264 51.9996 74.6857 52.1492 75.2388 52.4204C75.7918 52.6917 76.2525 53.0424 76.6207 53.4724C76.989 53.9025 77.2574 54.3817 77.426 54.9099C77.6018 55.4417 77.6669 55.9993 77.6213 56.5828C77.5757 57.1664 77.4102 57.749 77.1249 58.3308C76.8431 58.9054 76.4872 59.3858 76.0572 59.7719C75.6309 60.1688 75.1537 60.4604 74.6256 60.6469C74.1012 60.8442 73.558 60.9253 72.996 60.8902C72.4305 60.8623 71.8676 60.711 71.3074 60.4362C70.7471 60.1615 70.2829 59.809 69.9147 59.3789C69.5429 58.956 69.2709 58.4751 69.0986 57.9362C68.93 57.408 68.8685 56.8521 68.9141 56.2685C68.9634 55.6957 69.1289 55.122 69.4107 54.5474ZM70.3696 55.0177C70.1653 55.4343 70.0486 55.8538 70.0197 56.2762C69.9872 56.7058 70.0368 57.1133 70.1686 57.4986C70.304 57.8947 70.5125 58.2509 70.794 58.5672C71.0719 58.8906 71.4192 59.1545 71.8358 59.3589C72.2524 59.5632 72.6737 59.6762 73.0996 59.698C73.522 59.727 73.9276 59.672 74.3166 59.533C74.7091 59.4048 75.0653 59.1963 75.3851 58.9077C75.7014 58.6262 75.9617 58.2771 76.166 57.8605C76.3738 57.4368 76.494 57.0101 76.5265 56.5805C76.5554 56.1581 76.5022 55.7488 76.3668 55.3527C76.2386 54.9602 76.0355 54.6022 75.7575 54.2787C75.476 53.9624 75.127 53.7021 74.7104 53.4978C74.2938 53.2935 73.8743 53.1769 73.4519 53.1479C73.0259 53.1261 72.6149 53.1829 72.2188 53.3184C71.8299 53.4573 71.4773 53.6675 71.1611 53.949C70.8413 54.2377 70.5775 54.5939 70.3696 55.0177Z" fill="#D2F65A"/>
<path d="M66.0021 60.7133L72.1119 66.4779L71.2884 67.3507L65.938 62.3026L62.8169 65.6106L62.0575 64.8942L66.0021 60.7133Z" fill="#D2F65A"/>
<path d="M60.3664 66.3909L64.8235 73.5109L63.8064 74.1476L59.9032 67.9125L56.0482 70.3257L55.4943 69.4408L60.3664 66.3909Z" fill="#D2F65A"/>
<path d="M50.0057 71.4436C50.6247 71.2809 51.2285 71.2339 51.8173 71.3024C52.3983 71.373 52.9311 71.5432 53.4156 71.8129C53.9021 72.0903 54.3198 72.452 54.6686 72.898C55.0175 73.344 55.2702 73.8648 55.4268 74.4606C55.5834 75.0563 55.6195 75.6342 55.535 76.194C55.4506 76.7539 55.2637 77.2703 54.9745 77.7434C54.6873 78.2242 54.3081 78.6382 53.8369 78.9854C53.3657 79.3326 52.8167 79.5886 52.19 79.7534C51.571 79.9161 50.9749 79.9611 50.4016 79.8885C49.8226 79.8256 49.2898 79.6554 48.8033 79.378C48.3111 79.1104 47.8944 78.7525 47.5533 78.3045C47.2045 77.8585 46.9508 77.3338 46.7921 76.7303C46.6335 76.1268 46.5964 75.5451 46.6808 74.9853C46.7575 74.4274 46.9433 73.9071 47.2383 73.4243C47.5275 72.9512 47.9077 72.5411 48.379 72.1939C48.8445 71.8564 49.3867 71.6064 50.0057 71.4436ZM50.2772 72.4766C49.8284 72.5945 49.4348 72.7807 49.0964 73.0351C48.7502 73.2915 48.4745 73.5956 48.2691 73.9474C48.0581 74.3089 47.9251 74.6996 47.87 75.1194C47.8072 75.5412 47.8347 75.9765 47.9527 76.4252C48.0707 76.874 48.2607 77.2666 48.5228 77.603C48.7772 77.9414 49.0842 78.2123 49.4437 78.4156C49.7975 78.6286 50.1881 78.7617 50.6157 78.8148C51.0355 78.8698 51.4697 78.8384 51.9185 78.7204C52.375 78.6004 52.7763 78.4122 53.1225 78.1558C53.4609 77.9014 53.7357 77.5934 53.9467 77.2319C54.1598 76.8781 54.2977 76.4903 54.3605 76.0685C54.4156 75.6487 54.3842 75.2144 54.2662 74.7657C54.1482 74.3169 53.9621 73.9233 53.7077 73.5849C53.4455 73.2484 53.1337 72.9747 52.7722 72.7637C52.4127 72.5604 52.023 72.4312 51.6032 72.3761C51.1757 72.3231 50.7337 72.3566 50.2772 72.4766Z" fill="#D2F65A"/>
<path d="M41.435 73.1346L43.0215 81.8483L41.798 81.6727L40.3452 73.6328L40.9629 73.7215L37.213 81.0148L36.1201 80.858L34.6317 72.813L35.2256 72.8983L31.5351 80.2001L30.4067 80.0382L34.3793 72.1222L35.6265 72.3011L37.0287 79.764L36.708 79.7179L40.164 72.9522L41.435 73.1346Z" fill="#D2F65A"/>
<path d="M25.1819 68.8029L19.7589 75.2178L19.0075 74.5826L20.2281 67.3021L20.6313 67.643L13.6922 70.0893L12.9407 69.454L18.3545 63.0313L19.2343 63.775L14.9903 68.814L14.7795 68.6358L20.9035 66.5217L21.325 66.8781L20.2781 73.284L20.049 73.0903L24.3021 68.0591L25.1819 68.8029Z" fill="#D2F65A"/>
<path d="M11.8961 62.4209L9.67157 58.7177L10.5459 58.1925L12.7705 61.8957L11.8961 62.4209ZM15.0397 60.4066L12.5185 56.2096L13.4134 55.672L16.5526 60.8976L9.35188 65.2232L6.29928 60.1416L7.19422 59.604L9.62888 63.6569L15.0397 60.4066Z" fill="#D2F65A"/>
<path d="M8.37406 48.832C8.40571 49.0051 8.37009 49.1662 8.2672 49.3151C8.16287 49.4562 8.0202 49.5432 7.8392 49.5763C7.65033 49.6109 7.48608 49.5799 7.34646 49.4834C7.19753 49.3805 7.10723 49.2425 7.07558 49.0694C7.04249 48.8884 7.07811 48.7274 7.18244 48.5863C7.27891 48.4467 7.42157 48.3596 7.61044 48.3251C7.79144 48.292 7.95569 48.3229 8.10318 48.418C8.25068 48.513 8.34097 48.651 8.37406 48.832Z" fill="#D2F65A"/>
<path d="M5.89697 38.1359L6.65973 33.8716L7.67561 34.0533L6.91284 38.3176L5.89697 38.1359ZM10.2769 38.7975L10.0656 39.9787L1.79686 38.4997L2.84065 32.6643L3.86833 32.8481L3.03584 37.5022L10.2769 38.7975Z" fill="#D2F65A"/>
<path d="M13.5305 28.0493C13.2276 28.6131 12.8504 29.087 12.3989 29.4711C11.9512 29.8481 11.4635 30.1219 10.9359 30.2925C10.4013 30.4593 9.85192 30.5183 9.28784 30.4696C8.72375 30.4208 8.17038 30.2506 7.62774 29.9591C7.0851 29.6675 6.63775 29.3 6.28569 28.8566C5.93363 28.4132 5.68313 27.9244 5.53417 27.3903C5.37817 26.8524 5.33376 26.2927 5.40095 25.7113C5.46814 25.1299 5.65508 24.5537 5.96177 23.9829C6.26467 23.4191 6.63809 22.9523 7.08205 22.5823C7.52275 22.2015 8.01041 21.9277 8.54504 21.7609C9.07641 21.5832 9.62224 21.5223 10.1825 21.5781C10.7466 21.6269 11.3035 21.799 11.8532 22.0943C12.4029 22.3896 12.8538 22.759 13.2058 23.2024C13.5617 23.6388 13.8157 24.1295 13.9679 24.6744C14.1169 25.2085 14.1578 25.7663 14.0906 26.3478C14.0201 26.9184 13.8334 27.4856 13.5305 28.0493ZM12.5897 27.5439C12.8093 27.1351 12.9414 26.7202 12.986 26.2992C13.0344 25.8711 12.9999 25.4621 12.8825 25.0721C12.7618 24.6712 12.5667 24.3076 12.2971 23.9811C12.0313 23.6476 11.694 23.371 11.2853 23.1514C10.8765 22.9318 10.4597 22.8032 10.0349 22.7657C9.61387 22.7211 9.20646 22.761 8.81266 22.8855C8.41561 22.9991 8.05195 23.1942 7.72169 23.4709C7.39522 23.7405 7.12218 24.0796 6.90258 24.4884C6.67919 24.9041 6.54331 25.3261 6.49494 25.7542C6.45036 26.1752 6.4884 26.5862 6.60906 26.987C6.72267 27.3841 6.91237 27.7493 7.17818 28.0829C7.44777 28.4093 7.78694 28.6824 8.19568 28.902C8.60442 29.1216 9.01932 29.2537 9.44036 29.2983C9.86519 29.3358 10.278 29.2942 10.6789 29.1736C11.0727 29.0491 11.4328 28.8521 11.7593 28.5825C12.0895 28.3059 12.3663 27.9597 12.5897 27.5439Z" fill="#D2F65A"/>
<path d="M17.1452 22.0071L11.2488 16.0244L12.1035 15.1821L17.267 20.4212L20.5062 17.2287L21.2391 17.9723L17.1452 22.0071Z" fill="#D2F65A"/>
<path d="M22.9277 16.5511L18.7355 9.27205L19.7753 8.67316L23.4466 15.0475L27.3877 12.7777L27.9087 13.6824L22.9277 16.5511Z" fill="#D2F65A"/>
<path d="M33.5501 11.8288C32.9254 11.9678 32.3202 11.9919 31.7344 11.901C31.1565 11.8083 30.6306 11.618 30.1567 11.3301C29.6811 11.0344 29.2775 10.6571 28.9458 10.1981C28.6142 9.73923 28.3815 9.20913 28.2477 8.60785C28.1138 8.00656 28.0997 7.4278 28.2054 6.87155C28.3111 6.3153 28.5174 5.80632 28.8244 5.34458C29.1297 4.87504 29.5244 4.47576 30.0085 4.14672C30.4926 3.81769 31.0509 3.58279 31.6834 3.442C32.3081 3.30295 32.9055 3.28062 33.4756 3.37501C34.0518 3.45985 34.5777 3.65014 35.0533 3.94587C35.535 4.23205 35.9378 4.60547 36.2616 5.06612C36.5932 5.52503 36.8268 6.05904 36.9624 6.66813C37.098 7.27723 37.1129 7.8599 37.0072 8.41614C36.9094 8.97065 36.7039 9.48354 36.3908 9.95482C36.0838 10.4166 35.6882 10.8119 35.2042 11.141C34.7262 11.4605 34.1748 11.6897 33.5501 11.8288ZM33.3181 10.7863C33.771 10.6855 34.1714 10.5144 34.5192 10.273C34.8749 10.03 35.162 9.73658 35.3806 9.39288C35.6052 9.03964 35.753 8.65433 35.824 8.23693C35.9029 7.81779 35.8919 7.38176 35.7911 6.92885C35.6902 6.47593 35.5153 6.0764 35.2661 5.73027C35.0248 5.38239 34.7283 5.10005 34.3768 4.88324C34.0314 4.65688 33.6461 4.50907 33.2209 4.43979C32.8035 4.36878 32.3683 4.38368 31.9154 4.48449C31.4547 4.58704 31.0465 4.75985 30.6908 5.00293C30.3429 5.24428 30.0567 5.54157 29.8321 5.89481C29.6057 6.24024 29.4531 6.62252 29.3743 7.04166C29.3033 7.45906 29.3182 7.89422 29.419 8.34713C29.5198 8.80005 29.6909 9.20045 29.9322 9.54832C30.1814 9.89446 30.4826 10.1798 30.8358 10.4045C31.1873 10.6213 31.5718 10.7652 31.9892 10.8362C32.4144 10.9055 32.8573 10.8888 33.3181 10.7863Z" fill="#D2F65A"/>
<path d="M42.0417 10.411L40.7902 1.64297L42.006 1.86526L43.1498 9.95486L42.536 9.84264L46.5625 2.69828L47.6485 2.89683L48.8277 10.9929L48.2375 10.885L52.205 3.72986L53.3264 3.93488L49.0535 11.6929L47.8141 11.4663L46.6987 3.95527L47.0174 4.01353L43.3048 10.6419L42.0417 10.411Z" fill="#D2F65A"/>
<path d="M58.3144 15.383L63.9896 9.19006L64.715 9.85486L63.2042 17.0807L62.815 16.724L69.8463 14.5571L70.5718 15.2219L64.9055 21.423L64.0562 20.6447L68.4983 15.7795L68.7018 15.966L62.4982 17.8334L62.0912 17.4605L63.3935 11.1016L63.6147 11.3043L59.1638 16.1613L58.3144 15.383Z" fill="#D2F65A"/>
<path d="M71.2882 22.1735L73.3748 25.9562L72.4817 26.4489L70.3951 22.6662L71.2882 22.1735ZM68.0726 24.0707L70.4374 28.3577L69.5233 28.862L66.5788 23.5242L73.9339 19.4669L76.7973 24.6575L75.8831 25.1618L73.5994 21.0219L68.0726 24.0707Z" fill="#D2F65A"/>
<path d="M74.3499 35.9912C74.3249 35.817 74.3666 35.6575 74.4752 35.5126C74.5848 35.3756 74.7307 35.2941 74.9128 35.2679C75.1029 35.2407 75.2658 35.2779 75.4017 35.3796C75.5466 35.4882 75.6315 35.6295 75.6565 35.8037C75.6826 35.9859 75.6409 36.1454 75.5312 36.2824C75.4295 36.4182 75.2836 36.4998 75.0935 36.527C74.9114 36.5532 74.7484 36.5159 74.6047 36.4153C74.4609 36.3147 74.376 36.1734 74.3499 35.9912Z" fill="#D2F65A"/>
</svg>
