<svg width="49" height="49" viewBox="0 0 49 49" fill="none" xmlns="http://www.w3.org/2000/svg">
<path fill-rule="evenodd" clip-rule="evenodd" d="M24.5 0.5C11.2452 0.5 0.5 11.2452 0.5 24.5C0.5 37.7548 11.2452 48.5 24.5 48.5C37.7548 48.5 48.5 37.7548 48.5 24.5C48.5 11.2452 37.7548 0.5 24.5 0.5ZM19.2233 11.7773C20.5886 11.7152 21.0249 11.7 24.5012 11.7H24.4972C27.9746 11.7 28.4092 11.7152 29.7746 11.7773C31.1373 11.8397 32.0679 12.0555 32.884 12.372C33.7266 12.6987 34.4386 13.136 35.1506 13.848C35.8627 14.5595 36.3 15.2736 36.628 16.1155C36.9427 16.9294 37.1587 17.8595 37.2227 19.2222C37.284 20.5876 37.3 21.0238 37.3 24.5001C37.3 27.9764 37.284 28.4116 37.2227 29.777C37.1587 31.1391 36.9427 32.0695 36.628 32.8837C36.3 33.7253 35.8627 34.4394 35.1506 35.1509C34.4394 35.8629 33.7264 36.3013 32.8848 36.6283C32.0703 36.9448 31.1391 37.1605 29.7765 37.2229C28.4111 37.2851 27.9762 37.3003 24.4996 37.3003C21.0236 37.3003 20.5876 37.2851 19.2222 37.2229C17.8598 37.1605 16.9294 36.9448 16.115 36.6283C15.2736 36.3013 14.5595 35.8629 13.8483 35.1509C13.1365 34.4394 12.6992 33.7253 12.372 32.8834C12.0557 32.0695 11.84 31.1394 11.7773 29.7767C11.7155 28.4114 11.7 27.9764 11.7 24.5001C11.7 21.0238 11.716 20.5873 11.7771 19.2219C11.8384 17.8598 12.0544 16.9294 12.3717 16.1152C12.6997 15.2736 13.1371 14.5595 13.8491 13.848C14.5606 13.1363 15.2747 12.6989 16.1166 12.372C16.9305 12.0555 17.8606 11.8397 19.2233 11.7773Z" fill="white"/>
<path fill-rule="evenodd" clip-rule="evenodd" d="M23.353 14.0066C23.5759 14.0063 23.8158 14.0064 24.0746 14.0065L24.5013 14.0066C27.9189 14.0066 28.324 14.0189 29.6736 14.0802C30.9216 14.1373 31.5989 14.3458 32.0501 14.521C32.6475 14.753 33.0733 15.0304 33.5211 15.4784C33.9691 15.9264 34.2464 16.353 34.479 16.9504C34.6542 17.4011 34.863 18.0784 34.9198 19.3264C34.9811 20.6758 34.9944 21.0811 34.9944 24.4971C34.9944 27.9132 34.9811 28.3185 34.9198 29.6678C34.8627 30.9159 34.6542 31.5932 34.479 32.0439C34.247 32.6412 33.9691 33.0665 33.5211 33.5143C33.0731 33.9623 32.6477 34.2396 32.0501 34.4716C31.5995 34.6476 30.9216 34.8556 29.6736 34.9127C28.3242 34.974 27.9189 34.9874 24.5013 34.9874C21.0834 34.9874 20.6783 34.974 19.3289 34.9127C18.0809 34.8551 17.4036 34.6466 16.9521 34.4714C16.3548 34.2394 15.9281 33.962 15.4801 33.514C15.0321 33.066 14.7548 32.6404 14.5222 32.0428C14.347 31.5921 14.1382 30.9148 14.0814 29.6668C14.0201 28.3174 14.0078 27.9121 14.0078 24.4939C14.0078 21.0758 14.0201 20.6726 14.0814 19.3232C14.1385 18.0752 14.347 17.3979 14.5222 16.9466C14.7542 16.3493 15.0321 15.9226 15.4801 15.4746C15.9281 15.0266 16.3548 14.7493 16.9521 14.5168C17.4033 14.3408 18.0809 14.1328 19.3289 14.0754C20.5097 14.0221 20.9674 14.0061 23.353 14.0034V14.0066ZM31.3339 16.132C30.4859 16.132 29.7978 16.8192 29.7978 17.6675C29.7978 18.5155 30.4859 19.2035 31.3339 19.2035C32.1819 19.2035 32.8699 18.5155 32.8699 17.6675C32.8699 16.8194 32.1819 16.1314 31.3339 16.1314V16.132ZM17.9279 24.5001C17.9279 20.87 20.8709 17.9268 24.501 17.9267C28.1312 17.9267 31.0736 20.8699 31.0736 24.5001C31.0736 28.1302 28.1314 31.0721 24.5013 31.0721C20.8711 31.0721 17.9279 28.1302 17.9279 24.5001Z" fill="white"/>
<path d="M24.5012 20.2334C26.8575 20.2334 28.7679 22.1436 28.7679 24.5001C28.7679 26.8564 26.8575 28.7668 24.5012 28.7668C22.1447 28.7668 20.2345 26.8564 20.2345 24.5001C20.2345 22.1436 22.1447 20.2334 24.5012 20.2334V20.2334Z" fill="white"/>
</svg>
