<svg width="49" height="49" viewBox="0 0 49 49" fill="none" xmlns="http://www.w3.org/2000/svg">
<path fill-rule="evenodd" clip-rule="evenodd" d="M24.5 0.5C11.2452 0.5 0.5 11.2452 0.5 24.5C0.5 37.7548 11.2452 48.5 24.5 48.5C37.7548 48.5 48.5 37.7548 48.5 24.5C48.5 11.2452 37.7548 0.5 24.5 0.5ZM34.5016 16.2493C35.6031 16.5516 36.4706 17.4422 36.765 18.5732C37.3 20.623 37.3 24.9 37.3 24.9C37.3 24.9 37.3 29.1768 36.765 31.2268C36.4706 32.3578 35.6031 33.2484 34.5016 33.5508C32.5054 34.1 24.5 34.1 24.5 34.1C24.5 34.1 16.4946 34.1 14.4983 33.5508C13.3967 33.2484 12.5292 32.3578 12.2348 31.2268C11.7 29.1768 11.7 24.9 11.7 24.9C11.7 24.9 11.7 20.623 12.2348 18.5732C12.5292 17.4422 13.3967 16.5516 14.4983 16.2493C16.4946 15.7 24.5 15.7 24.5 15.7C24.5 15.7 32.5054 15.7 34.5016 16.2493Z" fill="white"/>
<path d="M22.1001 29.3V21.3L28.5001 25.3002L22.1001 29.3Z" fill="white"/>
</svg>
