<svg width="48" height="48" viewBox="0 0 48 48" fill="none" xmlns="http://www.w3.org/2000/svg">
<path fill-rule="evenodd" clip-rule="evenodd" d="M24 0C10.7452 0 0 10.7452 0 24C0 37.2548 10.7452 48 24 48C37.2548 48 48 37.2548 48 24C48 10.7452 37.2548 0 24 0ZM20.9727 10.9799C21.5941 10.9882 22.4757 11 24 11C25.525 11 26.4067 10.9882 27.0279 10.9799C27.8455 10.969 28.2121 10.9641 29 11C30.384 11.0634 32.1712 11.6785 33 12C33.2307 12.0894 33.4297 12.1507 33.6117 12.2068C34.1047 12.3587 34.4718 12.4718 35 13C35.5268 13.5264 35.64 13.8935 35.7914 14.3845C35.8478 14.5676 35.9095 14.7678 36 15C36.3196 15.8266 36.935 17.616 37 19C37.0354 19.788 37.0306 20.1549 37.0198 20.9727C37.0116 21.5941 37 22.4757 37 24C37 25.5243 37.0116 26.4059 37.0198 27.0273C37.0306 27.8451 37.0354 28.212 37 29C36.935 30.3834 36.3196 32.1731 36 33C35.9095 33.2322 35.8478 33.4325 35.7913 33.6155C35.6399 34.1065 35.5267 34.4737 35 35C34.4729 35.5276 34.1053 35.6409 33.613 35.7926C33.4306 35.8488 33.2311 35.9102 33 36C32.1729 36.3215 30.384 36.9366 29 37C28.212 37.0359 27.8452 37.031 27.0274 37.0201C26.4061 37.0118 25.5245 37 24 37C22.4758 37 21.5942 37.0118 20.9729 37.0201C20.155 37.031 19.788 37.0359 19 37C17.6163 36.9366 15.8271 36.3215 15 36C14.7689 35.9102 14.5694 35.8487 14.3869 35.7925C13.8947 35.6409 13.527 35.5276 13 35C12.4726 34.4728 12.3594 34.1055 12.2077 33.6133C12.1514 33.4308 12.0899 33.2312 12 33C11.6788 32.1734 11.0636 30.384 11 29C10.9643 28.212 10.9692 27.8451 10.98 27.0273C10.9883 26.4059 11 25.5243 11 24C11 22.4757 10.9884 21.5941 10.9803 20.9727C10.9696 20.1549 10.9648 19.788 11 19C11.0623 17.6166 11.6777 15.8269 12 15C12.0905 14.7678 12.1522 14.5675 12.2087 14.3845C12.3601 13.8935 12.4733 13.5263 13 13C13.5274 12.4724 13.8949 12.3591 14.3874 12.2073C14.5697 12.1511 14.769 12.0897 15 12C15.8266 11.6785 17.616 11.0634 19 11C19.788 10.9641 20.1549 10.969 20.9727 10.9799Z" fill="#333333"/>
<path fill-rule="evenodd" clip-rule="evenodd" d="M23.0001 13.9999C23.2431 13.9996 23.9387 13.9997 24.473 13.9998L25.0001 13.9999C26.4591 13.9999 27.3375 13.9888 27.97 13.9807C28.8199 13.9699 29.2258 13.9647 30.0001 13.9999C30.8521 14.0389 31.2624 14.4086 31.5804 14.6953C31.7285 14.8288 31.8566 14.9442 32.0001 14.9999C32.2695 15.1046 32.6114 15.0238 32.9468 14.9445C33.3553 14.848 33.754 14.7537 34.0001 14.9999C34.2462 15.2461 34.1519 15.6446 34.0553 16.0529C33.976 16.3883 33.8951 16.7303 34.0001 16.9999C34.0557 17.1431 34.1711 17.2711 34.3045 17.419C34.5912 17.7371 34.9613 18.1475 35.0001 18.9999C35.0369 19.8107 35.0295 20.5784 35.0177 21.8025C35.0099 22.6171 35.0001 23.6339 35.0001 24.9999C35.0001 26.4582 35.0112 27.3365 35.0193 27.969V27.9691C35.0301 28.8194 35.0352 29.2256 35.0001 29.9999C34.9611 30.8524 34.5911 31.2628 34.3044 31.5808C34.1711 31.7288 34.0557 31.8567 34.0001 31.9999C33.8954 32.2694 33.9762 32.6113 34.0555 32.9467C34.152 33.3552 34.2462 33.7539 34.0001 33.9999C33.7539 34.2462 33.3552 34.1519 32.9468 34.0554C32.6115 33.9761 32.2696 33.8953 32.0001 33.9999C31.8571 34.0558 31.7292 34.171 31.5815 34.3042C31.2633 34.591 30.8529 34.9609 30.0001 34.9999C29.2259 35.0351 28.82 35.03 27.9701 35.0192H27.97C27.3375 35.0111 26.4591 34.9999 25.0001 34.9999C23.6333 34.9999 22.6163 35.0097 21.8017 35.0176H21.8016H21.8015C20.5778 35.0294 19.8106 35.0368 19.0001 34.9999C18.1481 34.9606 17.738 34.5912 17.42 34.3046C17.2718 34.1711 17.1436 34.0557 17.0001 33.9999C16.7306 33.8953 16.3888 33.9761 16.0535 34.0553C15.645 34.1519 15.2463 34.2462 15.0001 33.9999C14.754 33.7538 14.8482 33.3554 14.9448 32.9471C15.0241 32.6117 15.105 32.2697 15.0001 31.9999C14.9444 31.8568 14.829 31.7288 14.6956 31.5809C14.4089 31.2628 14.0388 30.8524 14.0001 29.9999C13.9632 29.1893 13.9706 28.4224 13.9824 27.1989C13.9903 26.3842 14.0001 25.3672 14.0001 23.9999C14.0001 22.5403 13.9889 21.6618 13.9808 21.0294C13.97 20.1797 13.9649 19.7741 14.0001 18.9999C14.039 18.1478 14.4087 17.7376 14.6954 17.4196C14.8289 17.2715 14.9444 17.1434 15.0001 16.9999C15.1047 16.7304 15.0239 16.3886 14.9447 16.0533C14.8481 15.6449 14.7539 15.2462 15.0001 14.9999C15.2462 14.7538 15.6447 14.8481 16.053 14.9446C16.3885 15.024 16.7305 15.1049 17.0001 14.9999C17.1433 14.944 17.2713 14.8287 17.4192 14.6955C17.7373 14.4088 18.1475 14.0391 19.0001 13.9999C19.6883 13.9688 20.1219 13.9749 20.8358 13.9848C21.3476 13.9919 22.0033 14.0011 23.0001 13.9999ZM32.0001 15.9999C31.1719 15.9999 30.0001 17.1716 30.0001 17.9999C30.0001 18.8281 31.1719 18.9999 32.0001 18.9999C32.8282 18.9999 33.0001 18.8281 33.0001 17.9999C33.0001 17.1718 32.8282 15.9999 32.0001 15.9999ZM18.0001 24.9999C18.0001 21.4099 21.4101 17.9999 25.0001 17.9999C28.59 17.9999 31.0001 21.4099 31.0001 24.9999C31.0001 28.5899 28.59 30.9999 25.0001 30.9999C21.4101 30.9999 18.0001 28.5899 18.0001 24.9999Z" fill="#333333"/>
<path d="M25 20C27.4851 20 29 22.5146 29 25C29 27.4851 27.4851 29 25 29C22.5146 29 20 27.4851 20 25C20 22.5146 22.5146 20 25 20V20Z" fill="#333333"/>
</svg>
