<svg width="48" height="48" viewBox="0 0 48 48" fill="none" xmlns="http://www.w3.org/2000/svg">
<path fill-rule="evenodd" clip-rule="evenodd" d="M0 24C0 37.2548 10.7452 48 24 48C37.2548 48 48 37.2548 48 24C48 10.7452 37.2548 0 24 0C10.7452 0 0 10.7452 0 24ZM20 35V29L31 18L17 27L11 25C9.72366 24.6057 9.42794 23.6361 11 23L34 14C35.0519 13.5182 36.4016 14.3758 36 16L32 35C31.7261 36.325 31.0995 36.612 30 36L24 31L21 34C20.8879 34.11 20.8057 34.2589 20.7233 34.4083C20.5605 34.7034 20.3969 35 20 35Z" fill="#333333"/>
</svg>
