<svg width="48" height="48" viewBox="0 0 48 48" fill="none" xmlns="http://www.w3.org/2000/svg">
<path fill-rule="evenodd" clip-rule="evenodd" d="M24 0C10.7452 0 0 10.7452 0 24C0 37.2548 10.7452 48 24 48C37.2548 48 48 37.2548 48 24C48 10.7452 37.2548 0 24 0ZM23 20V19C22.8504 16.87 23.9227 14.7547 26 14C26.7645 13.7317 28.1524 13.7652 29 14C29.3324 14.1006 30.5513 14.6981 31 15H32C32.2502 14.9242 32.6778 14.9668 33.0794 15.0068C33.2748 15.0262 33.4641 15.045 33.6239 15.0493C33.4476 15.4033 33.2268 15.7638 33 16C32.302 16.7547 32.5874 17.5031 34 17C34.8476 16.7149 35.1662 16.6813 35 17C34.9336 17.1117 34.7554 17.2801 34.4818 17.5386C34.3445 17.6683 34.1832 17.8207 34 18C33.0693 18.9224 33 19.2285 33 20C33 21.1908 32.565 23.6415 32 25C30.953 27.5493 28.2435 29.6751 26 31C22.8424 32.8616 18.5398 33.0901 15 32C14.6672 31.8959 14.2834 31.7843 13.9039 31.674C12.9381 31.3932 12 31.1204 12 31C12 30.9756 12.0592 30.9788 12.2053 30.9867C12.3607 30.995 12.6145 31.0086 13 31C14.5622 30.9665 16.6705 30.7715 18 30L19 29H18C16.5375 28.4969 15.3324 27.0901 15 26H16V25C15.8619 24.9303 15.7107 24.8568 15.5516 24.7794C14.6006 24.3168 13.3702 23.7184 13 23C12.6842 22.3962 12.8837 21.1174 13 21C13.187 21.0684 13.3573 21.1332 13.5084 21.1907C14.2842 21.486 14.5564 21.5895 14 21C12.7536 19.7254 12.4017 17.7945 13 16V15L14 16C16.2435 18.1971 18.9754 19.6143 22 20H23ZM33.6239 15.0493C33.7899 15.0538 33.9241 15.0426 34 15C34.2825 14.8491 34 13.9497 34 14C34 14.1596 33.848 14.5992 33.6239 15.0493Z" fill="#333333"/>
</svg>
