<svg width="48" height="48" viewBox="0 0 48 48" fill="none" xmlns="http://www.w3.org/2000/svg">
<path fill-rule="evenodd" clip-rule="evenodd" d="M24 0C10.7452 0 0 10.7452 0 24C0 37.2548 10.7452 48 24 48C37.2548 48 48 37.2548 48 24C48 10.7452 37.2548 0 24 0ZM26 32C25.7597 32.2437 25 32 25 32H24C24 32 20.0202 31.967 17 29C13.7064 25.7629 11 20 11 20C11 20 10.8182 19.2028 11 19C11.2047 18.7708 12 19 12 19H16C16 19 17.2052 20.7037 18 22C19.5527 24.5313 20.4735 25.2713 21 25C21.7681 24.6051 21 21 21 21C21 21 21.4006 20.5149 21 20C20.9862 19.9823 20.9721 19.9642 20.9578 19.9458C20.6516 19.5519 20.2466 19.031 20 19C19.7902 18.9736 19.5549 18.2052 20 18C20.4539 17.7907 21.4913 17.8594 22.5472 17.9293C23.0473 17.9624 23.5516 17.9958 24 18C24.6901 18.0069 24.7359 17.9658 24.7859 17.9598C24.8147 17.9564 24.8449 17.9645 25 18C26.0646 18.2425 26.0502 18.9774 26.0151 20.7722C26.008 21.1363 26 21.544 26 22C26 22.8654 26.3375 24.5955 27 25C27.1741 25.1056 27.2322 25.0035 27.6484 24.2713C27.9132 23.8055 28.3231 23.0846 29 22C29.8253 20.6773 31 19 31 19C31.2149 18.8788 32 19 32 19H36C36 19 36.8105 18.4983 37 19C37.1996 19.5245 36.5972 20.9908 35 23C34.5755 23.5341 34.2051 23.9764 33.8918 24.3506C32.2694 26.288 32.1743 26.4016 34 28C35.6125 29.413 36.4854 29.7708 36.8293 29.9118C36.9288 29.9526 36.984 29.9752 37 30C37.8609 31.3479 36 32 36 32H32C32 32 31.9817 31.6361 31 31C30.7413 30.8325 30.465 30.6412 30.1807 30.4444C29.0365 29.6523 27.7639 28.7712 27 29C26.0323 29.2905 26 31 26 31C26 31 26.22 31.7768 26 32Z" fill="#333333"/>
</svg>
