<svg width="48" height="48" viewBox="0 0 48 48" fill="none" xmlns="http://www.w3.org/2000/svg">
<path fill-rule="evenodd" clip-rule="evenodd" d="M24 0C10.7452 0 0 10.7452 0 24C0 37.2548 10.7452 48 24 48C37.2548 48 48 37.2548 48 24C48 10.7452 37.2548 0 24 0ZM34 16C35.1187 16.2957 35.701 16.8936 36 18C36.5433 20.0053 37 24 37 24C37 24 36.5433 27.9946 36 30C35.701 31.1064 35.1187 31.7042 34 32C31.9726 32.5372 24 33 24 33C24 33 16.0276 32.5372 14 32C12.8813 31.7042 12.299 31.1064 12 30C11.4568 27.9946 11 24 11 24C11 24 11.4568 20.0053 12 18C12.299 16.8936 12.8813 16.2957 14 16C16.0276 15.4626 24 15 24 15C24 15 31.9726 15.4626 34 16Z" fill="#333333"/>
<path d="M22 29V21L28 25L22 29Z" fill="#333333"/>
</svg>
