<svg width="64" height="64" viewBox="0 0 64 64" fill="none" xmlns="http://www.w3.org/2000/svg">
<g clip-path="url(#clip0_1_40)">
<path fill-rule="evenodd" clip-rule="evenodd" d="M31.0001 1.23768e-05C35.7078 -0.00400393 40.7524 0.969407 45.0001 3.00001C49.2477 5.03062 53.0459 8.3332 56.0001 12C58.9542 15.6668 60.919 19.4164 62.0001 24C63.0811 28.5836 63.0043 33.399 62.0001 38C60.9959 42.6011 58.8925 47.2842 56.0001 51C53.1077 54.7158 50.2132 57.8986 46.0001 60C41.787 62.1015 36.7072 62.9252 32.0001 63C27.2929 63.0748 22.2778 61.9665 18.0001 60L3.00007 63C2.60535 63.0714 1.37709 63.137 1.00007 63C0.62305 62.863 1.25695 62.3082 1.00007 62C0.743188 61.6918 0.0670136 61.3956 6.85006e-05 61C-0.0668766 60.6044 -0.141112 60.3756 6.85006e-05 60L5.00007 48C2.07822 43.2264 0.10894 37.5963 6.85006e-05 32C-0.108803 26.4037 1.26609 20.8837 4.00007 16C6.73404 11.1163 11.1733 6.83129 16.0001 4.00001C20.8268 1.16873 25.4047 0.00213624 31.0001 1.23768e-05ZM19.0001 35C18.7822 34.2949 18.6475 34.354 18.0001 34C17.3527 33.646 16.711 32.8027 16.0001 33C15.2891 33.1973 14.3726 34.363 14.0001 35C13.6275 35.637 13.8237 36.2834 14.0001 37C16.6952 46.7178 27.3583 52.678 37.0001 50C37.0705 49.98 36.9314 50.0254 37.0001 50C42.7488 47.9121 47.3712 42.9868 49.0001 37C49.1053 36.6383 49.0429 36.3743 49.0001 36C48.9572 35.6257 49.1843 35.3286 49.0001 35C48.8159 34.6714 48.297 34.2318 48.0001 34C47.7032 33.7683 47.3635 33.0989 47.0001 33C46.6367 32.9011 46.3734 32.9506 46.0001 33C45.6267 33.0494 45.3253 33.81 45.0001 34C44.6749 34.19 44.2265 33.699 44.0001 34C43.7736 34.301 44.0925 34.6348 44.0001 35C42.9202 38.967 39.1835 42.4432 35.0001 44C28.3302 45.7883 20.8286 41.586 19.0001 35ZM24.0001 22C24.0001 22.9029 23.6383 24.3616 23.0001 25C22.3619 25.6384 21.9026 26 21.0001 26C20.0975 26 19.6383 25.6384 19.0001 25C18.3619 24.3616 18.0001 22.9029 18.0001 22C18.0001 21.0972 18.3619 20.6384 19.0001 20C19.6383 19.3616 20.0975 19 21.0001 19C21.9026 19 22.3619 19.3616 23.0001 20C23.6383 20.6384 24.0001 21.0972 24.0001 22ZM42.0001 26C42.9026 26 43.3619 25.6384 44.0001 25C44.6383 24.3616 45.0001 22.9029 45.0001 22C45.0001 21.0972 44.6383 20.6384 44.0001 20C43.3619 19.3616 42.9026 19 42.0001 19C41.0975 19 40.6383 19.3616 40.0001 20C39.3619 20.6384 39.0001 21.0972 39.0001 22C39.0001 22.9029 39.3619 24.3616 40.0001 25C40.6383 25.6384 41.0975 26 42.0001 26Z" fill="#D2F65A"/>
</g>
<defs>
<clipPath id="clip0_1_40">
<rect width="64" height="64" fill="white"/>
</clipPath>
</defs>
</svg>
