<svg width="42" height="26" viewBox="0 0 42 26" fill="none" xmlns="http://www.w3.org/2000/svg">
<g clip-path="url(#clip0_1_500)">
<path d="M1.7076 10.9985C1.69346 10.9827 1.67969 10.9672 1.66632 10.9522C1.68083 10.9383 1.69575 10.924 1.71109 10.9094C1.98439 10.649 2.38902 10.2756 2.90989 9.82794C3.9522 8.9321 5.45687 7.7417 7.30341 6.56558C11.0076 4.20623 16.0302 1.94092 21.4295 2.15667C26.8286 2.37242 31.653 5.03405 35.156 7.68437C36.9022 9.00553 38.3065 10.3137 39.2736 11.2909C39.7568 11.7793 40.1302 12.1842 40.3817 12.4659C40.3959 12.4818 40.4097 12.4973 40.4232 12.5125C40.4086 12.5264 40.3936 12.5407 40.3782 12.5554C40.105 12.8159 39.7004 13.1894 39.1796 13.6372C38.1374 14.5332 36.6328 15.7239 34.7864 16.9002C31.0825 19.2599 26.0602 21.5252 20.6607 21.3079C15.2612 21.0907 10.4365 18.429 6.93342 15.7791C5.18717 14.4581 3.78285 13.1502 2.81577 12.1732C2.33249 11.685 1.95913 11.2801 1.7076 10.9985Z" fill="white" stroke="#333333" stroke-width="1.125"/>
<path d="M28.4707 12.2032C28.412 13.6554 27.9247 15.0574 27.0703 16.2321C26.216 17.4067 25.033 18.3013 23.671 18.8026C22.3091 19.304 20.8293 19.3898 19.4188 19.0491C18.0082 18.7085 16.7301 17.9566 15.746 16.8886C14.762 15.8205 14.1163 14.4842 13.8907 13.0486C13.6651 11.6129 13.8697 10.1426 14.4787 8.82343C15.0876 7.5043 16.0734 6.39569 17.3115 5.63769C18.5495 4.8797 19.9841 4.50633 21.4339 4.56471C22.3968 4.60349 23.3426 4.83179 24.2173 5.23661C25.0921 5.64143 25.8787 6.21484 26.5321 6.92414C27.1856 7.63344 27.6932 8.46472 28.0258 9.37052C28.3584 10.2763 28.5096 11.2389 28.4707 12.2032Z" fill="#333333" stroke="#333333" stroke-width="1.125"/>
<path d="M1.86691 10.3974C2.04298 10.1267 2.26944 9.79647 2.54825 9.42338C3.34311 8.35969 4.56031 6.95182 6.24447 5.58294C9.60503 2.85149 14.8339 0.265713 22.3255 0.890786C29.8422 1.51795 34.4221 4.50644 37.1224 7.30666C38.4767 8.71105 39.3645 10.0749 39.9123 11.0834C40.0913 11.4131 40.2339 11.7044 40.3443 11.9464L1.86691 10.3974Z" fill="#333333" stroke="#333333" stroke-width="1.125"/>
<path d="M36.0458 20.7635C36.1207 20.9564 36.3028 21.0904 36.5165 21.0314C36.7023 20.9806 36.8597 20.7536 36.7841 20.5595L36.0458 20.7635ZM36.0458 20.7635L34.1964 16.0224C34.1208 15.8283 34.2781 15.6014 34.4639 15.5511M36.0458 20.7635L34.4639 15.5511M34.4639 15.5511C34.6776 15.4922 34.8597 15.6262 34.9347 15.819L34.4639 15.5511ZM34.4287 15.932C34.4287 15.932 34.4287 15.932 34.4287 15.932L34.4287 15.932Z" fill="#333333" stroke="#333333" stroke-width="0.498634"/>
<path d="M38.6535 18.368L38.6536 18.3679L38.6485 18.3599C37.9889 17.323 37.3293 16.2859 36.6697 15.2487C36.6532 15.2185 36.6488 15.1831 36.6575 15.1498C36.6666 15.1153 36.6889 15.0859 36.7195 15.0679C36.7501 15.05 36.7865 15.0451 36.8208 15.054C36.855 15.063 36.8843 15.0853 36.9023 15.1161L36.9021 15.1162L36.9072 15.1242L38.886 18.2354C38.8939 18.2499 38.8991 18.2656 38.9014 18.2819C38.9038 18.2994 38.9027 18.3172 38.8982 18.3343C38.8937 18.3514 38.8859 18.3674 38.8753 18.3815C38.8646 18.3955 38.8513 18.4073 38.8362 18.4161C38.8211 18.425 38.8043 18.4308 38.787 18.4332C38.7696 18.4356 38.752 18.4345 38.735 18.43C38.718 18.4256 38.7021 18.4178 38.6881 18.4072C38.6742 18.3966 38.6624 18.3833 38.6535 18.368Z" fill="#333333" stroke="#333333" stroke-width="0.498634"/>
<path d="M31.615 18.6207L31.3687 18.6591C31.6252 20.3028 32.1796 21.8857 33.0046 23.3298L33.0048 23.3301C33.0313 23.3764 33.0277 23.4062 33.0207 23.4262C33.0116 23.4524 32.988 23.4833 32.9496 23.5058C32.9111 23.5283 32.8735 23.5332 32.8477 23.5284C32.8288 23.5249 32.8022 23.5143 32.7755 23.4685C31.9448 22.021 31.3846 20.434 31.1224 18.7852C31.113 18.725 31.1226 18.6782 31.1375 18.6493C31.1499 18.6254 31.1696 18.6049 31.211 18.5929C31.2331 18.587 31.2773 18.589 31.3202 18.6115C31.362 18.6334 31.3681 18.6552 31.3687 18.6593L31.615 18.6207ZM31.615 18.6207C31.5828 18.4154 31.327 18.3019 31.1437 18.3528L32.5596 23.5931C32.8073 24.021 33.467 23.6353 33.2211 23.2061C32.4112 21.7884 31.8669 20.2344 31.615 18.6207Z" fill="#333333" stroke="#333333" stroke-width="0.498634"/>
<path d="M29.5137 24.0768L29.5135 24.0765C28.9273 22.7611 28.5932 21.3471 28.5285 19.9081L29.5137 24.0768ZM29.5137 24.0768C29.5381 24.1314 29.541 24.1793 29.5339 24.2117C29.5278 24.2387 29.5138 24.2633 29.4779 24.2844C29.4588 24.2954 29.4161 24.3049 29.3682 24.2938C29.3213 24.2829 29.3084 24.2625 29.3066 24.2585L29.0798 24.362L29.3071 24.2596M29.5137 24.0768L29.3071 24.2596M29.3071 24.2596C28.6861 22.8806 28.3312 21.3964 28.261 19.8853L29.3071 24.2596ZM28.261 19.8853C28.2586 19.8315 28.2753 19.8129 28.285 19.8042C28.3006 19.7903 28.332 19.7756 28.3771 19.7757C28.4217 19.7758 28.4611 19.7908 28.4862 19.8116C28.5068 19.8286 28.526 19.8555 28.5284 19.908L28.261 19.8853Z" fill="#333333" stroke="#333333" stroke-width="0.498634"/>
<path d="M23.8206 21.5723L24.6177 25.4854C24.6592 25.6882 24.8989 25.8054 25.0885 25.7533C25.2997 25.6957 25.3981 25.4854 25.356 25.2814L24.5589 21.367C24.518 21.1636 24.2777 21.0464 24.0882 21.0991M23.8206 21.5723H24.0699V21.5704V21.5471M23.8206 21.5723L23.8297 21.5704L24.0649 21.5225L24.0699 21.5471M23.8206 21.5723L24.0882 21.0991M24.0699 21.5471L24.862 25.4355M24.0699 21.5471V21.5389L24.0621 21.5085C24.053 21.473 24.058 21.4355 24.0761 21.4037C24.0938 21.3725 24.1226 21.3494 24.1565 21.3389M24.862 25.4355L24.6177 25.4854L24.862 25.4357L24.862 25.4355ZM24.862 25.4355C24.865 25.4504 24.8783 25.4751 24.9164 25.4958C24.9558 25.5171 24.9971 25.5199 25.0224 25.5129L25.0228 25.5128C25.0595 25.5028 25.0827 25.4821 25.0975 25.4544C25.1138 25.424 25.1219 25.3805 25.1119 25.3318L25.1117 25.3312L24.3146 21.4167L24.3145 21.4161L24.3145 21.4161C24.3115 21.4014 24.2985 21.3768 24.2605 21.3562C24.2221 21.3354 24.1818 21.3324 24.1565 21.3389M24.1565 21.3389C24.1572 21.3387 24.1578 21.3385 24.1585 21.3383L24.0882 21.0991M24.1565 21.3389C24.156 21.339 24.1555 21.3391 24.155 21.3393L24.0882 21.0991" fill="#333333" stroke="#333333" stroke-width="0.498634"/>
<path d="M21.5591 21.4611L21.3118 21.4291C21.1433 22.7294 20.9765 24.0302 20.8113 25.3314C20.803 25.3957 20.7805 25.4399 20.7586 25.464C20.7413 25.483 20.7187 25.497 20.6752 25.497C20.6668 25.497 20.6509 25.4948 20.6301 25.4859C20.6096 25.4772 20.5896 25.4643 20.5731 25.449C20.5566 25.4336 20.5473 25.4194 20.543 25.4095C20.5391 25.4006 20.5395 25.3966 20.5397 25.3952L20.5397 25.3951C20.7082 24.0939 20.875 22.7931 21.0402 21.4928C21.0486 21.428 21.0711 21.3836 21.093 21.3594C21.1103 21.3404 21.1328 21.3265 21.1757 21.3265C21.1973 21.3265 21.2411 21.3402 21.278 21.3746C21.3137 21.4077 21.3118 21.4291 21.3117 21.4298L21.5591 21.4611ZM21.5591 21.4611C21.3906 22.7613 21.2238 24.062 21.0586 25.3631L20.7929 21.4611C20.8195 21.2546 20.9471 21.0772 21.1757 21.0772C21.364 21.0772 21.5851 21.2552 21.5591 21.4611Z" fill="#333333" stroke="#333333" stroke-width="0.498634"/>
<path d="M17.1529 20.5728L17.1606 20.5637C17.172 20.5552 17.1929 20.5462 17.2272 20.5471C17.2731 20.5483 17.3111 20.567 17.329 20.585L17.5054 20.4088L17.3287 20.5846C17.3552 20.6113 17.365 20.6405 17.3642 20.6726C17.3633 20.708 17.3484 20.7512 17.3154 20.79L17.315 20.7905C16.6028 21.6337 16.1939 22.6917 16.1538 23.7951L16.1535 23.8046L16.1538 23.8142C16.1546 23.8323 16.1516 23.8504 16.1452 23.8674C16.1388 23.8843 16.129 23.8998 16.1164 23.9129C16.1039 23.9259 16.0889 23.9363 16.0723 23.9434C16.0557 23.9505 16.0379 23.9541 16.0199 23.9541C16.0019 23.9541 15.984 23.9505 15.9674 23.9434C15.9508 23.9363 15.9358 23.9259 15.9233 23.9129C15.9108 23.8999 15.901 23.8844 15.8945 23.8674C15.8881 23.8504 15.8852 23.8323 15.8859 23.8142L15.8859 23.8135C15.9307 22.621 16.3773 21.4788 17.1529 20.5728Z" fill="#333333" stroke="#333333" stroke-width="0.498634"/>
<path d="M13.1837 19.4163C12.296 20.3145 11.6222 21.4052 11.2165 22.607L11.2165 22.6072C11.2109 22.6236 11.2104 22.6528 11.2323 22.6897C11.2542 22.7268 11.2867 22.75 11.3124 22.7578C11.3469 22.766 11.3834 22.7609 11.4144 22.7432C11.4461 22.7252 11.4697 22.6955 11.4801 22.6603L11.4832 22.6495L11.4835 22.6496C11.9433 21.3134 12.7458 20.1217 13.8106 19.1939L13.1837 19.4163ZM13.1837 19.4163V19.4278L13.6063 19.0191C13.6325 18.9938 13.6674 18.9797 13.7037 18.9797C13.7392 18.9797 13.7734 18.9932 13.7993 19.0174L13.1837 19.4163Z" fill="#333333" stroke="#333333" stroke-width="0.498634"/>
<path d="M10.8251 16.5944L10.8252 16.5943C10.8314 16.5867 10.8511 16.5715 10.8958 16.5728C10.9424 16.5742 10.981 16.5935 10.9985 16.6109C11.0254 16.6379 11.0346 16.6663 11.0337 16.6972C11.0326 16.732 11.0177 16.776 10.9835 16.817L10.9833 16.8172L8.32025 20.0132C8.32024 20.0132 8.32022 20.0132 8.3202 20.0133C8.3139 20.0208 8.29388 20.036 8.24886 20.0348C8.20193 20.0335 8.16374 20.0141 8.14704 19.9973L8.14664 19.9969C8.11975 19.97 8.11051 19.9416 8.11144 19.9106C8.11248 19.8756 8.12743 19.8313 8.16192 19.7898L10.8251 16.5944Z" fill="#333333" stroke="#333333" stroke-width="0.498634"/>
<path d="M8.10868 14.7676L8.10933 14.7668C8.14766 14.7163 8.18896 14.6896 8.22013 14.6799C8.24513 14.6722 8.27191 14.6718 8.30846 14.6933L8.30901 14.6936C8.3278 14.7046 8.35807 14.738 8.37237 14.7859C8.38625 14.8324 8.37426 14.8515 8.3729 14.8533L8.37265 14.8536C7.45047 16.086 6.22424 17.0572 4.81426 17.672C4.75574 17.6969 4.70676 17.6997 4.67498 17.6929C4.64943 17.6873 4.62589 17.6745 4.60444 17.6377L4.60425 17.6374C4.59303 17.6182 4.58289 17.5735 4.59377 17.5246C4.6043 17.4773 4.62364 17.468 4.6245 17.4676L4.52592 17.2386L4.62328 17.4681C5.9987 16.8847 7.19955 15.9543 8.10868 14.7676Z" fill="#333333" stroke="#333333" stroke-width="0.498634"/>
<path d="M1.07165 14.4752L1.0713 14.4746C1.05962 14.4546 1.05006 14.4113 1.0609 14.3638C1.07137 14.318 1.09111 14.3055 1.09594 14.3033C1.09595 14.3033 1.09595 14.3033 1.09595 14.3033L5.40647 12.3648C5.40648 12.3648 5.40649 12.3648 5.4065 12.3648C5.46088 12.3405 5.50871 12.3375 5.54097 12.3447C5.56796 12.3507 5.59222 12.3647 5.61302 12.4004L5.61337 12.401C5.62505 12.421 5.63461 12.4644 5.62377 12.5118C5.6133 12.5576 5.59356 12.5701 5.58873 12.5723C5.58872 12.5723 5.58872 12.5723 5.58872 12.5723L1.27817 14.5108C1.27815 14.5108 1.27813 14.5108 1.27811 14.5108C1.22374 14.5352 1.17593 14.5381 1.14368 14.5309C1.11672 14.5249 1.09245 14.5109 1.07165 14.4752Z" fill="#333333" stroke="#333333" stroke-width="0.498634"/>
</g>
<defs>
<clipPath id="clip0_1_500">
<rect width="40.3867" height="25.5318" fill="white" transform="translate(0.806641 0.234131)"/>
</clipPath>
</defs>
</svg>
