<svg width="60" height="60" viewBox="0 0 60 60" fill="none" xmlns="http://www.w3.org/2000/svg">
<path d="M0 0.847076H50C55.5228 0.847076 60 5.32423 60 10.8471V60.8471H10C4.47715 60.8471 0 56.3699 0 50.8471V0.847076Z" fill="#D2F65A"/>
<path d="M16.1357 36.798C15.4183 37.2123 15.1725 38.1296 15.5867 38.8471C16.0009 39.5645 16.9183 39.8103 17.6357 39.3961L16.1357 36.798ZM43.4494 23.9853C43.6638 23.1851 43.1889 22.3626 42.3887 22.1482L29.3487 18.6541C28.5485 18.4397 27.726 18.9146 27.5116 19.7148C27.2972 20.515 27.7721 21.3375 28.5723 21.5519L40.1634 24.6577L37.0575 36.2488C36.8431 37.049 37.318 37.8716 38.1182 38.086C38.9184 38.3004 39.7409 37.8255 39.9553 37.0253L43.4494 23.9853ZM17.6357 39.3961L42.7505 24.8961L41.2505 22.298L16.1357 36.798L17.6357 39.3961Z" fill="#333333"/>
</svg>
