<svg width="60" height="60" viewBox="0 0 60 60" fill="none" xmlns="http://www.w3.org/2000/svg">
<path d="M0 0H50C55.5228 0 60 4.47715 60 10V60H10C4.47715 60 0 55.5228 0 50V0Z" fill="#333333"/>
<path d="M16.1357 35.951C15.4183 36.3652 15.1725 37.2826 15.5867 38C16.0009 38.7174 16.9183 38.9633 17.6357 38.549L16.1357 35.951ZM43.4494 23.1382C43.6638 22.338 43.1889 21.5155 42.3887 21.3011L29.3487 17.8071C28.5485 17.5926 27.726 18.0675 27.5116 18.8677C27.2972 19.6679 27.7721 20.4904 28.5723 20.7048L40.1634 23.8107L37.0575 35.4018C36.8431 36.202 37.318 37.0245 38.1182 37.2389C38.9184 37.4533 39.7409 36.9784 39.9553 36.1782L43.4494 23.1382ZM17.6357 38.549L42.7505 24.049L41.2505 21.451L16.1357 35.951L17.6357 38.549Z" fill="#D2F65A"/>
</svg>
