<svg width="60" height="60" viewBox="0 0 60 60" fill="none" xmlns="http://www.w3.org/2000/svg">
<circle cx="30" cy="30" r="30" fill="#D2F65A"/>
<path d="M17.25 36.701C16.5326 37.1152 16.2867 38.0326 16.701 38.75C17.1152 39.4674 18.0326 39.7133 18.75 39.299L17.25 36.701ZM44.5636 23.8882C44.778 23.088 44.3032 22.2655 43.503 22.0511L30.463 18.5571C29.6628 18.3426 28.8403 18.8175 28.6258 19.6177C28.4114 20.4179 28.8863 21.2404 29.6865 21.4548L41.2776 24.5607L38.1718 36.1518C37.9574 36.952 38.4323 37.7745 39.2325 37.9889C40.0326 38.2033 40.8552 37.7284 41.0696 36.9282L44.5636 23.8882ZM18.75 39.299L43.8647 24.799L42.3647 22.201L17.25 36.701L18.75 39.299Z" fill="#333333"/>
</svg>
