<svg width="64" height="67" viewBox="0 0 64 67" fill="none" xmlns="http://www.w3.org/2000/svg">
<path d="M0 33.5C0 51.1774 14.3226 65.5 32 65.5C49.6774 65.5 64 51.1774 64 33.5C64 15.8226 49.6774 1.5 32 1.5C14.3226 1.5 0 15.8226 0 33.5ZM26 27.5C26 29.7839 24.2839 31.5 22 31.5C19.7161 31.5 18 29.7839 18 27.5C18 25.2161 19.7161 23.5 22 23.5C24.2839 23.5 26 25.2161 26 27.5ZM46 29.5C44.0903 27.7968 39.9097 27.7968 38 29.5L37 30.5C35.929 31.4548 34.7677 30.9452 35 29.5C35.5161 26.2484 38.6839 23.5 42 23.5C45.3161 23.5 49.4839 26.2484 50 29.5C50.2194 30.9323 49.0839 31.4677 48 30.5L46 29.5ZM20 42.5C22.8903 45.971 27.4839 47.5 32 47.5C36.5161 47.5 41.1097 45.9581 44 42.5C45.7548 40.4097 48.7419 43.3968 47 45.5C43.3226 49.9 37.7419 52.5 32 52.5C26.2581 52.5 20.6774 49.9129 17 45.5C15.2581 43.3968 18.271 40.3968 20 42.5Z" fill="#D2F65A"/>
</svg>
