<svg width="48" height="48" viewBox="0 0 48 48" fill="none" xmlns="http://www.w3.org/2000/svg">
<g clip-path="url(#clip0_0_1032)">
<path d="M24.4017 19.2681C22.1239 19.2681 20.265 21.127 20.265 23.4048C20.265 25.6826 22.1239 27.5415 24.4017 27.5415C26.6795 27.5415 28.5384 25.6826 28.5384 23.4048C28.5384 21.127 26.6795 19.2681 24.4017 19.2681ZM36.8087 23.4048C36.8087 21.6918 36.8242 19.9943 36.728 18.2844C36.6318 16.2983 36.1787 14.5356 34.7264 13.0832C33.2709 11.6278 31.5114 11.1778 29.5253 11.0816C27.8122 10.9854 26.1147 11.0009 24.4048 11.0009C22.6918 11.0009 20.9943 10.9854 19.2844 11.0816C17.2983 11.1778 15.5356 11.6309 14.0832 13.0832C12.6278 14.5387 12.1778 16.2983 12.0816 18.2844C11.9854 19.9974 12.0009 21.6949 12.0009 23.4048C12.0009 25.1147 11.9854 26.8153 12.0816 28.5252C12.1778 30.5114 12.6309 32.274 14.0832 33.7264C15.5387 35.1818 17.2983 35.6318 19.2844 35.728C20.9974 35.8242 22.6949 35.8087 24.4048 35.8087C26.1178 35.8087 27.8153 35.8242 29.5253 35.728C31.5114 35.6318 33.274 35.1787 34.7264 33.7264C36.1818 32.2709 36.6318 30.5114 36.728 28.5252C36.8273 26.8153 36.8087 25.1178 36.8087 23.4048ZM24.4017 29.7697C20.8795 29.7697 18.0368 26.9271 18.0368 23.4048C18.0368 19.8826 20.8795 17.0399 24.4017 17.0399C27.9239 17.0399 30.7666 19.8826 30.7666 23.4048C30.7666 26.9271 27.9239 29.7697 24.4017 29.7697ZM31.0272 18.2657C30.2049 18.2657 29.5408 17.6016 29.5408 16.7793C29.5408 15.9569 30.2049 15.2928 31.0272 15.2928C31.8496 15.2928 32.5137 15.9569 32.5137 16.7793C32.514 16.9745 32.4757 17.1679 32.4011 17.3484C32.3265 17.5289 32.217 17.6928 32.0789 17.8309C31.9408 17.969 31.7768 18.0785 31.5964 18.1531C31.4159 18.2277 31.2225 18.266 31.0272 18.2657Z" fill="#333333"/>
</g>
<circle cx="24" cy="24" r="23.5" stroke="#333333"/>
<defs>
<clipPath id="clip0_0_1032">
<rect width="23" height="23" fill="white" transform="translate(13 12)"/>
</clipPath>
</defs>
</svg>
