<svg width="48" height="48" viewBox="0 0 48 48" fill="none" xmlns="http://www.w3.org/2000/svg">
<g clip-path="url(#clip0_0_1028)">
<path d="M35 24C35 26.9174 33.8411 29.7153 31.7782 31.7782C29.7153 33.8411 26.9174 35 24 35C21.0826 35 18.2847 33.8411 16.2218 31.7782C14.1589 29.7153 13 26.9174 13 24C13 21.0826 14.1589 18.2847 16.2218 16.2218C18.2847 14.1589 21.0826 13 24 13C26.9174 13 29.7153 14.1589 31.7782 16.2218C33.8411 18.2847 35 21.0826 35 24ZM24.3946 21.1208C23.3249 21.5662 21.1854 22.4875 17.9789 23.8845C17.4591 24.0907 17.1855 24.2942 17.1607 24.4922C17.1195 24.8264 17.5389 24.9584 18.1095 25.1385L18.3501 25.2141C18.9111 25.397 19.6674 25.6101 20.0592 25.6184C20.4167 25.6266 20.8141 25.4809 21.2527 25.1784C24.2489 23.1558 25.7958 22.1341 25.892 22.1121C25.9608 22.0956 26.057 22.0764 26.1202 22.1341C26.1849 22.1905 26.178 22.2991 26.1711 22.328C26.1299 22.5054 24.484 24.0344 23.6329 24.8264C23.3675 25.0739 23.1791 25.2485 23.1406 25.2884C23.0558 25.375 22.9697 25.4603 22.8821 25.5441C22.3596 26.0474 21.9691 26.4241 22.9028 27.0401C23.3524 27.3371 23.7126 27.5805 24.0715 27.8252C24.462 28.092 24.8525 28.3574 25.3585 28.6901C25.4864 28.7726 25.6101 28.862 25.7298 28.9472C26.1849 29.2717 26.596 29.5632 27.1006 29.5165C27.3949 29.489 27.6988 29.214 27.8527 28.389C28.2171 26.4406 28.9335 22.2207 29.0985 20.4814C29.1086 20.3368 29.1026 20.1915 29.0806 20.0482C29.0677 19.9326 29.0117 19.8261 28.9239 19.7499C28.7988 19.6635 28.6496 19.6188 28.4976 19.622C28.0851 19.6289 27.4485 19.8503 24.3946 21.1208Z" fill="#333333"/>
</g>
<circle cx="24" cy="24" r="23.5" stroke="#333333"/>
<defs>
<clipPath id="clip0_0_1028">
<rect width="22" height="22" fill="white" transform="translate(13 13)"/>
</clipPath>
</defs>
</svg>
