<svg width="48" height="48" viewBox="0 0 48 48" fill="none" xmlns="http://www.w3.org/2000/svg">
<path d="M35 13H15C14.4696 13 13.9609 13.2107 13.5858 13.5858C13.2107 13.9609 13 14.4696 13 15V33C13 33.5304 13.2107 34.0391 13.5858 34.4142C13.9609 34.7893 14.4696 35 15 35H17V39C16.9999 39.1901 17.054 39.3762 17.156 39.5367C17.2579 39.6971 17.4035 39.8252 17.5756 39.9058C17.7477 39.9865 17.9392 40.0165 18.1277 39.9922C18.3163 39.9679 18.4939 39.8904 18.64 39.7687L24.3625 35H29.6375C30.1057 35.0001 30.5591 34.836 30.9187 34.5362L36.28 30.0675C36.5057 29.8803 36.6873 29.6455 36.8118 29.3799C36.9363 29.1143 37.0005 28.8245 37 28.5312V15C37 14.4696 36.7893 13.9609 36.4142 13.5858C36.0391 13.2107 35.5304 13 35 13ZM25 26C25 26.2652 24.8946 26.5196 24.7071 26.7071C24.5196 26.8946 24.2652 27 24 27C23.7348 27 23.4804 26.8946 23.2929 26.7071C23.1054 26.5196 23 26.2652 23 26V20C23 19.7348 23.1054 19.4804 23.2929 19.2929C23.4804 19.1054 23.7348 19 24 19C24.2652 19 24.5196 19.1054 24.7071 19.2929C24.8946 19.4804 25 19.7348 25 20V26ZM31 26C31 26.2652 30.8946 26.5196 30.7071 26.7071C30.5196 26.8946 30.2652 27 30 27C29.7348 27 29.4804 26.8946 29.2929 26.7071C29.1054 26.5196 29 26.2652 29 26V20C29 19.7348 29.1054 19.4804 29.2929 19.2929C29.4804 19.1054 29.7348 19 30 19C30.2652 19 30.5196 19.1054 30.7071 19.2929C30.8946 19.4804 31 19.7348 31 20V26Z" fill="#333333"/>
<circle cx="24" cy="24" r="23.5" stroke="#333333"/>
</svg>
