<svg width="48" height="48" viewBox="0 0 48 48" fill="none" xmlns="http://www.w3.org/2000/svg">
<path d="M18.4237 35.7161C29.745 35.7161 35.9381 26.3355 35.9381 18.2149C35.9381 17.9524 35.9381 17.6861 35.9269 17.4236C37.1326 16.5508 38.1732 15.4702 39 14.2324C37.8737 14.729 36.6802 15.0563 35.4581 15.2036C36.7454 14.4342 37.7095 13.2236 38.1712 11.7968C36.9619 12.5133 35.6382 13.0162 34.2581 13.2836C33.3303 12.2956 32.1026 11.641 30.7652 11.4213C29.4277 11.2016 28.0551 11.4291 26.86 12.0685C25.6649 12.7079 24.714 13.7236 24.1546 14.9581C23.5952 16.1927 23.4585 17.5773 23.7656 18.8974C21.3183 18.7747 18.924 18.1389 16.7382 17.0313C14.5524 15.9237 12.6238 14.369 11.0775 12.468C10.2925 13.8238 10.053 15.4275 10.4075 16.9535C10.762 18.4795 11.684 19.8134 12.9862 20.6843C12.0104 20.6511 11.056 20.3891 10.2 19.9193V20.0036C10.2017 21.4239 10.6937 22.8001 11.5929 23.8994C12.4921 24.9988 13.7433 25.754 15.135 26.0374C14.6067 26.1829 14.0611 26.2555 13.5131 26.253C13.1268 26.2542 12.7413 26.2184 12.3619 26.1461C12.7552 27.3688 13.5211 28.4377 14.5523 29.2033C15.5835 29.9689 16.8284 30.3927 18.1125 30.4155C15.931 32.1289 13.2364 33.0582 10.4625 33.0536C9.97373 33.0557 9.48529 33.0275 9 32.9693C11.8153 34.7641 15.0849 35.7172 18.4237 35.7161Z" fill="#333333"/>
<circle cx="24" cy="24" r="23.5" stroke="#333333"/>
</svg>
