<svg width="48" height="48" viewBox="0 0 48 48" fill="none" xmlns="http://www.w3.org/2000/svg">
<g clip-path="url(#clip0_0_1040)">
<path d="M39.3475 17.6253C39.5645 16.9045 39.3475 16.376 38.3214 16.376H34.9222C34.0573 16.376 33.6621 16.8332 33.4451 17.3354C33.4451 17.3354 31.7168 21.5499 29.2678 24.2825C28.4773 25.0777 28.1162 25.3288 27.6853 25.3288C27.4698 25.3288 27.1567 25.0777 27.1567 24.3569V17.6253C27.1567 16.7604 26.9072 16.376 26.1864 16.376H20.8451C20.3057 16.376 19.9802 16.7759 19.9802 17.1572C19.9802 17.9756 21.2047 18.1647 21.3303 20.4711V25.4745C21.3303 26.5703 21.1334 26.7703 20.6994 26.7703C19.5478 26.7703 16.7453 22.5403 15.0822 17.6981C14.7582 16.7573 14.4312 16.3775 13.5632 16.3775H10.1656C9.19375 16.3775 9 16.8348 9 17.337C9 18.2391 10.1517 22.7031 14.3646 28.607C17.1732 32.6386 21.1272 34.8241 24.7294 34.8241C26.8885 34.8241 27.1552 34.3389 27.1552 33.5019V30.4546C27.1552 29.4843 27.3613 29.289 28.0449 29.289C28.5471 29.289 29.4119 29.5432 31.4285 31.4854C33.7318 33.7887 34.1131 34.8225 35.4074 34.8225H38.805C39.7753 34.8225 40.2604 34.3374 39.9814 33.3795C39.6761 32.4262 38.5756 31.039 37.1155 29.3975C36.3219 28.4613 35.1361 27.4538 34.775 26.9501C34.2712 26.3006 34.4169 26.0139 34.775 25.4373C34.7765 25.4388 38.9166 19.6077 39.3475 17.6253Z" fill="#333333"/>
</g>
<circle cx="24" cy="24" r="23.5" stroke="#333333"/>
<defs>
<clipPath id="clip0_0_1040">
<rect width="31" height="37.2" fill="white" transform="translate(9 7)"/>
</clipPath>
</defs>
</svg>
