<svg width="48" height="48" viewBox="0 0 48 48" fill="none" xmlns="http://www.w3.org/2000/svg">
<g clip-path="url(#clip0_0_1020)">
<path d="M24.3172 14C25.0114 14.0039 26.7482 14.0208 28.5942 14.0949L29.2494 14.1235C31.1071 14.2106 32.9635 14.3614 33.8852 14.6175C35.1137 14.9633 36.0783 15.9695 36.4046 17.2461C36.9246 19.2741 36.9896 23.2287 36.9974 24.1868L36.9987 24.3844V24.6106C36.9896 25.5687 36.9246 29.5246 36.4046 31.5513C36.0744 32.8318 35.1085 33.8393 33.8852 34.1799C32.9635 34.436 31.1071 34.5868 29.2494 34.6739L28.5942 34.7038C26.7482 34.7766 25.0114 34.7948 24.3172 34.7974L24.0117 34.7987H23.6802C22.2112 34.7896 16.0674 34.7233 14.1122 34.1799C12.885 33.8341 11.9191 32.8279 11.5928 31.5513C11.0728 29.5233 11.0078 25.5687 11 24.6106V24.1868C11.0078 23.2287 11.0728 19.2728 11.5928 17.2461C11.923 15.9656 12.8889 14.9581 14.1135 14.6188C16.0674 14.0741 22.2125 14.0078 23.6815 14H24.3172ZM21.3987 19.85V28.95L29.1987 24.4L21.3987 19.85Z" fill="#333333"/>
</g>
<circle cx="24" cy="24" r="23.5" stroke="#333333"/>
<defs>
<clipPath id="clip0_0_1020">
<rect width="26" height="20.8" fill="white" transform="translate(11 14)"/>
</clipPath>
</defs>
</svg>
